<svg xmlns="http://www.w3.org/2000/svg" xmlns:xlink="http://www.w3.org/1999/xlink" width="672" zoomAndPan="magnify" viewBox="0 0 504 359.999987" height="480" preserveAspectRatio="xMidYMid meet" version="1.0"><defs><g/><clipPath id="8539218913"><path d="M 0 41 L 122 41 L 122 169 L 0 169 Z M 0 41 " clip-rule="nonzero"/></clipPath><clipPath id="2535c79c72"><rect x="0" width="504" y="0" height="190"/></clipPath><clipPath id="0bb9f40a47"><rect x="0" width="229" y="0" height="30"/></clipPath></defs><g transform="matrix(1, 0, 0, 1, 0, 84)"><g clip-path="url(#2535c79c72)"><g clip-path="url(#8539218913)"><g fill="#ff9fb3" fill-opacity="1"><g transform="translate(9.517243, 159.439305)"><g><path d="M 98.90625 -74.90625 C 100.726562 -66.601562 102.117188 -58.265625 103.078125 -49.890625 C 104.035156 -41.515625 104.96875 -33.128906 105.875 -24.734375 C 106.164062 -21.847656 105.675781 -19.40625 104.40625 -17.40625 C 103.144531 -15.414062 101.445312 -13.894531 99.3125 -12.84375 C 97.175781 -11.789062 94.96875 -11.332031 92.6875 -11.46875 C 90.414062 -11.613281 88.445312 -12.378906 86.78125 -13.765625 C 85.125 -15.160156 84.148438 -17.304688 83.859375 -20.203125 C 83.210938 -26.804688 82.570312 -33.613281 81.9375 -40.625 C 81.3125 -47.632812 80.410156 -54.59375 79.234375 -61.5 C 78.066406 -68.414062 76.226562 -74.984375 73.71875 -81.203125 C 73.28125 -82.328125 72.726562 -83.40625 72.0625 -84.4375 C 71.394531 -85.476562 70.882812 -86.570312 70.53125 -87.71875 C 69.71875 -86.332031 68.773438 -84.863281 67.703125 -83.3125 C 66.640625 -81.769531 65.875 -80.390625 65.40625 -79.171875 C 63.851562 -75.378906 62.84375 -71.519531 62.375 -67.59375 C 61.914062 -63.675781 61.738281 -59.691406 61.84375 -55.640625 C 61.96875 -53.109375 61.328125 -51.03125 59.921875 -49.40625 C 58.523438 -47.789062 56.769531 -46.660156 54.65625 -46.015625 C 52.539062 -45.378906 50.375 -45.238281 48.15625 -45.59375 C 45.945312 -45.957031 44.03125 -46.84375 42.40625 -48.25 C 40.789062 -49.65625 39.875 -51.613281 39.65625 -54.125 C 39.3125 -56.789062 38.9375 -59.460938 38.53125 -62.140625 C 38.132812 -64.816406 37.601562 -67.515625 36.9375 -70.234375 C 36.757812 -71.109375 36.53125 -72.359375 36.25 -73.984375 C 35.96875 -75.617188 35.597656 -77.175781 35.140625 -78.65625 C 34.679688 -80.144531 34.023438 -81.210938 33.171875 -81.859375 C 32.921875 -82.109375 32.816406 -82.34375 32.859375 -82.5625 C 32.597656 -82.394531 32.503906 -82.375 32.578125 -82.5 C 31.765625 -82.03125 31.09375 -80.972656 30.5625 -79.328125 C 30.03125 -77.691406 29.628906 -76.539062 29.359375 -75.875 C 28.648438 -73.882812 28.070312 -71.847656 27.625 -69.765625 C 27.1875 -67.691406 26.828125 -65.601562 26.546875 -63.5 C 25.117188 -54.125 24.875 -44.679688 25.8125 -35.171875 C 26.75 -25.671875 27.867188 -16.265625 29.171875 -6.953125 C 29.578125 -4.066406 29.171875 -1.601562 27.953125 0.4375 C 26.742188 2.476562 25.09375 3.988281 23 4.96875 C 20.90625 5.957031 18.726562 6.410156 16.46875 6.328125 C 14.207031 6.242188 12.1875 5.488281 10.40625 4.0625 C 8.632812 2.632812 7.550781 0.476562 7.15625 -2.40625 C 6.070312 -10.132812 5.070312 -17.9375 4.15625 -25.8125 C 3.25 -33.6875 2.851562 -41.566406 2.96875 -49.453125 C 2.988281 -54.253906 3.289062 -59.316406 3.875 -64.640625 C 4.46875 -69.960938 5.484375 -75.195312 6.921875 -80.34375 C 8.359375 -85.5 10.453125 -90.09375 13.203125 -94.125 C 15.765625 -98.007812 19.113281 -100.941406 23.25 -102.921875 C 27.382812 -104.910156 31.660156 -105.691406 36.078125 -105.265625 C 40.492188 -104.847656 44.5 -102.867188 48.09375 -99.328125 C 48.238281 -99.160156 48.4375 -98.945312 48.6875 -98.6875 C 48.9375 -98.425781 49.144531 -98.164062 49.3125 -97.90625 C 51.4375 -101.90625 53.984375 -105.257812 56.953125 -107.96875 C 59.921875 -110.675781 63.238281 -112.28125 66.90625 -112.78125 C 70.570312 -113.289062 74.65625 -112.269531 79.15625 -109.71875 C 83.195312 -107.488281 86.484375 -104.4375 89.015625 -100.5625 C 91.546875 -96.695312 93.582031 -92.5 95.125 -87.96875 C 96.675781 -83.445312 97.9375 -79.09375 98.90625 -74.90625 Z M 98.90625 -74.90625 "/></g></g></g></g><g fill="#ff9fb3" fill-opacity="1"><g transform="translate(111.65372, 138.429436)"><g><path d="M 70.40625 -73.265625 C 71.75 -63.453125 73.035156 -53.585938 74.265625 -43.671875 C 75.503906 -33.753906 76.796875 -23.84375 78.140625 -13.9375 C 78.535156 -11.0625 78.078125 -8.675781 76.765625 -6.78125 C 75.460938 -4.882812 73.742188 -3.546875 71.609375 -2.765625 C 69.484375 -1.992188 67.273438 -1.765625 64.984375 -2.078125 C 62.691406 -2.390625 60.679688 -3.332031 58.953125 -4.90625 C 57.234375 -6.488281 56.171875 -8.71875 55.765625 -11.59375 C 55.359375 -14.5625 54.972656 -17.507812 54.609375 -20.4375 C 54.253906 -23.363281 53.867188 -26.316406 53.453125 -29.296875 L 31 -27.8125 C 30.601562 -23.945312 30.25 -20.113281 29.9375 -16.3125 C 29.632812 -12.519531 29.335938 -8.695312 29.046875 -4.84375 C 28.847656 -1.914062 27.945312 0.285156 26.34375 1.765625 C 24.738281 3.242188 22.789062 4.078125 20.5 4.265625 C 18.207031 4.453125 15.976562 4.078125 13.8125 3.140625 C 11.65625 2.210938 9.894531 0.765625 8.53125 -1.203125 C 7.175781 -3.171875 6.59375 -5.617188 6.78125 -8.546875 C 7.550781 -18.472656 8.550781 -28.328125 9.78125 -38.109375 C 11.019531 -47.890625 13.203125 -57.515625 16.328125 -66.984375 C 17.847656 -71.671875 19.878906 -76.757812 22.421875 -82.25 C 24.960938 -87.738281 27.96875 -92.851562 31.4375 -97.59375 C 34.90625 -102.332031 38.925781 -105.953125 43.5 -108.453125 C 47.78125 -110.804688 51.375 -111.53125 54.28125 -110.625 C 57.1875 -109.726562 59.59375 -107.820312 61.5 -104.90625 C 63.414062 -101.988281 64.957031 -98.554688 66.125 -94.609375 C 67.289062 -90.660156 68.203125 -86.757812 68.859375 -82.90625 C 69.515625 -79.0625 70.03125 -75.847656 70.40625 -73.265625 Z M 34.8125 -50.53125 C 37.5 -50.71875 40.140625 -50.898438 42.734375 -51.078125 C 45.328125 -51.253906 47.925781 -51.425781 50.53125 -51.59375 C 50.082031 -54.863281 49.660156 -58.109375 49.265625 -61.328125 C 48.878906 -64.554688 48.46875 -67.753906 48.03125 -70.921875 C 47.800781 -72.203125 47.609375 -73.5625 47.453125 -75 C 47.304688 -76.445312 47.15625 -77.914062 47 -79.40625 C 45.519531 -77.25 44.269531 -75.207031 43.25 -73.28125 C 41.582031 -70.101562 40.097656 -66.804688 38.796875 -63.390625 C 37.492188 -59.984375 36.375 -56.570312 35.4375 -53.15625 C 35.382812 -52.75 35.300781 -52.3125 35.1875 -51.84375 C 35.082031 -51.382812 34.957031 -50.945312 34.8125 -50.53125 Z M 34.8125 -50.53125 "/></g></g></g><g fill="#ff9fb3" fill-opacity="1"><g transform="translate(183.26556, 130.107427)"><g><path d="M 85.03125 -15.703125 C 86.769531 -13.335938 87.507812 -11.078125 87.25 -8.921875 C 87 -6.765625 86.085938 -4.867188 84.515625 -3.234375 C 82.953125 -1.609375 81.050781 -0.453125 78.8125 0.234375 C 76.570312 0.929688 74.269531 0.976562 71.90625 0.375 C 69.550781 -0.226562 67.503906 -1.664062 65.765625 -3.9375 C 61.148438 -10.050781 56.019531 -15.65625 50.375 -20.75 C 44.738281 -25.84375 38.679688 -30.429688 32.203125 -34.515625 C 31.816406 -28.609375 31.453125 -22.675781 31.109375 -16.71875 C 30.765625 -10.757812 30.398438 -4.820312 30.015625 1.09375 C 29.867188 3.988281 28.984375 6.300781 27.359375 8.03125 C 25.742188 9.757812 23.796875 10.945312 21.515625 11.59375 C 19.234375 12.238281 17.007812 12.304688 14.84375 11.796875 C 12.6875 11.285156 10.890625 10.164062 9.453125 8.4375 C 8.023438 6.71875 7.382812 4.410156 7.53125 1.515625 C 8.21875 -9.398438 8.707031 -20.503906 9 -31.796875 C 9.289062 -43.097656 10.429688 -54.164062 12.421875 -65 C 13.421875 -70.625 15.367188 -76.0625 18.265625 -81.3125 C 21.171875 -86.570312 24.914062 -90.941406 29.5 -94.421875 C 34.082031 -97.910156 39.460938 -99.863281 45.640625 -100.28125 C 49.941406 -100.5625 54.03125 -99.835938 57.90625 -98.109375 C 61.789062 -96.390625 65.113281 -93.957031 67.875 -90.8125 C 70.632812 -87.664062 72.523438 -84.097656 73.546875 -80.109375 C 74.578125 -76.128906 74.429688 -71.972656 73.109375 -67.640625 C 71.785156 -63.328125 69.585938 -59.242188 66.515625 -55.390625 C 63.441406 -51.535156 59.878906 -48.164062 55.828125 -45.28125 C 66.679688 -36.789062 76.414062 -26.929688 85.03125 -15.703125 Z M 43.90625 -64.84375 C 44.5 -65.457031 45.484375 -66.398438 46.859375 -67.671875 C 48.234375 -68.953125 49.457031 -70.300781 50.53125 -71.71875 C 51.601562 -73.144531 52.035156 -74.253906 51.828125 -75.046875 C 51.378906 -77.140625 50.578125 -78.273438 49.421875 -78.453125 C 48.265625 -78.628906 46.96875 -78.28125 45.53125 -77.40625 C 44.101562 -76.53125 42.707031 -75.351562 41.34375 -73.875 C 39.988281 -72.40625 38.820312 -71.007812 37.84375 -69.6875 C 36.863281 -68.363281 36.226562 -67.40625 35.9375 -66.8125 C 35.1875 -64.488281 34.53125 -61.972656 33.96875 -59.265625 C 35.96875 -59.609375 37.753906 -60.269531 39.328125 -61.25 C 40.910156 -62.226562 42.4375 -63.425781 43.90625 -64.84375 Z M 43.90625 -64.84375 "/></g></g></g><g fill="#ff9fb3" fill-opacity="1"><g transform="translate(263.629385, 128.214449)"><g><path d="M 81 -89.34375 C 77.664062 -84.5625 74.113281 -79.785156 70.34375 -75.015625 C 66.582031 -70.253906 62.332031 -66.078125 57.59375 -62.484375 C 66.445312 -50.984375 71.03125 -37.660156 71.34375 -22.515625 C 71.34375 -19.617188 70.613281 -17.363281 69.15625 -15.75 C 67.707031 -14.144531 65.894531 -13.113281 63.71875 -12.65625 C 61.539062 -12.195312 59.320312 -12.34375 57.0625 -13.09375 C 54.800781 -13.84375 52.878906 -15.144531 51.296875 -17 C 49.710938 -18.851562 48.914062 -21.179688 48.90625 -23.984375 C 48.757812 -29.296875 47.644531 -34.453125 45.5625 -39.453125 C 43.488281 -44.453125 40.617188 -48.820312 36.953125 -52.5625 C 35.140625 -40.0625 32.972656 -27.640625 30.453125 -15.296875 C 30.023438 -13.316406 28.992188 -11.703125 27.359375 -10.453125 C 25.734375 -9.210938 23.878906 -8.410156 21.796875 -8.046875 C 19.710938 -7.679688 17.789062 -7.804688 16.03125 -8.421875 C 12.894531 -9.523438 10.8125 -11.429688 9.78125 -14.140625 C 8.757812 -16.859375 8.546875 -19.707031 9.140625 -22.6875 C 11.972656 -36.726562 14.328125 -50.847656 16.203125 -65.046875 C 18.085938 -79.242188 19.550781 -93.519531 20.59375 -107.875 C 20.789062 -110.769531 21.691406 -113.019531 23.296875 -114.625 C 24.910156 -116.226562 26.859375 -117.25 29.140625 -117.6875 C 31.421875 -118.132812 33.660156 -117.988281 35.859375 -117.25 C 38.066406 -116.507812 39.863281 -115.238281 41.25 -113.4375 C 42.632812 -111.644531 43.226562 -109.300781 43.03125 -106.40625 C 42.613281 -101.53125 42.195312 -96.675781 41.78125 -91.84375 C 41.363281 -87.007812 40.84375 -82.160156 40.21875 -77.296875 C 43.332031 -78.796875 46.238281 -81.007812 48.9375 -83.9375 C 51.632812 -86.863281 54.085938 -89.957031 56.296875 -93.21875 C 58.515625 -96.488281 60.507812 -99.414062 62.28125 -102 C 63.9375 -104.394531 65.859375 -105.894531 68.046875 -106.5 C 70.242188 -107.113281 72.441406 -107.019531 74.640625 -106.21875 C 76.847656 -105.425781 78.722656 -104.175781 80.265625 -102.46875 C 81.816406 -100.769531 82.710938 -98.753906 82.953125 -96.421875 C 83.191406 -94.097656 82.539062 -91.738281 81 -89.34375 Z M 81 -89.34375 "/></g></g></g><g fill="#ff9fb3" fill-opacity="1"><g transform="translate(333.293157, 132.282902)"><g><path d="M 66.390625 -22.421875 C 69.242188 -21.921875 71.421875 -20.753906 72.921875 -18.921875 C 74.429688 -17.085938 75.296875 -15.015625 75.515625 -12.703125 C 75.734375 -10.398438 75.414062 -8.195312 74.5625 -6.09375 C 73.707031 -4 72.3125 -2.359375 70.375 -1.171875 C 68.445312 0.00390625 66.050781 0.34375 63.1875 -0.15625 C 56.5 -1.425781 49.765625 -2.367188 42.984375 -2.984375 C 36.210938 -3.609375 29.382812 -3.859375 22.5 -3.734375 C 20.382812 -3.742188 18.238281 -4.28125 16.0625 -5.34375 C 13.882812 -6.414062 12.148438 -7.898438 10.859375 -9.796875 C 9.566406 -11.703125 9.3125 -13.960938 10.09375 -16.578125 C 13.738281 -29.984375 17.554688 -43.367188 21.546875 -56.734375 C 25.535156 -70.097656 29.695312 -83.441406 34.03125 -96.765625 C 34.570312 -98.398438 35.375 -99.742188 36.4375 -100.796875 C 37.425781 -102.066406 38.726562 -103.066406 40.34375 -103.796875 C 41.96875 -104.523438 43.875 -104.773438 46.0625 -104.546875 C 56.789062 -103.316406 67.445312 -101.59375 78.03125 -99.375 C 80.875 -98.757812 83.046875 -97.507812 84.546875 -95.625 C 86.046875 -93.75 86.90625 -91.660156 87.125 -89.359375 C 87.351562 -87.054688 87.035156 -84.851562 86.171875 -82.75 C 85.316406 -80.65625 83.921875 -79.035156 81.984375 -77.890625 C 80.054688 -76.753906 77.675781 -76.492188 74.84375 -77.109375 C 67.59375 -78.660156 60.160156 -79.984375 52.546875 -81.078125 C 51.628906 -78.273438 50.71875 -75.472656 49.8125 -72.671875 C 48.90625 -69.867188 48.054688 -67.066406 47.265625 -64.265625 C 51.296875 -63.578125 55.164062 -62.769531 58.875 -61.84375 C 61.800781 -61.113281 64.238281 -59.625 66.1875 -57.375 C 68.132812 -55.132812 68.867188 -52.378906 68.390625 -49.109375 C 68.128906 -47.234375 67.347656 -45.472656 66.046875 -43.828125 C 64.753906 -42.191406 63.1875 -40.953125 61.34375 -40.109375 C 59.507812 -39.273438 57.617188 -39.09375 55.671875 -39.5625 C 50.691406 -40.789062 45.679688 -41.765625 40.640625 -42.484375 C 39.847656 -39.765625 39.046875 -37 38.234375 -34.1875 C 37.429688 -31.375 36.628906 -28.613281 35.828125 -25.90625 C 40.941406 -25.675781 46.03125 -25.269531 51.09375 -24.6875 C 56.164062 -24.113281 61.265625 -23.359375 66.390625 -22.421875 Z M 66.390625 -22.421875 "/></g></g></g><g fill="#ff9fb3" fill-opacity="1"><g transform="translate(399.880437, 141.177828)"><g><path d="M 89.28125 -85.515625 C 91.925781 -84.503906 93.890625 -82.984375 95.171875 -80.953125 C 96.460938 -78.921875 97.148438 -76.71875 97.234375 -74.34375 C 97.316406 -71.96875 96.820312 -69.769531 95.75 -67.75 C 94.6875 -65.738281 93.1875 -64.3125 91.25 -63.46875 C 89.3125 -62.625 87.015625 -62.660156 84.359375 -63.578125 C 79.992188 -65.171875 75.414062 -66.65625 70.625 -68.03125 C 67.539062 -57.550781 64.488281 -47.070312 61.46875 -36.59375 C 58.457031 -26.113281 55.394531 -15.585938 52.28125 -5.015625 C 51.570312 -2.296875 50.222656 -0.265625 48.234375 1.078125 C 46.242188 2.429688 44.082031 3.148438 41.75 3.234375 C 39.425781 3.328125 37.257812 2.84375 35.25 1.78125 C 33.238281 0.71875 31.734375 -0.796875 30.734375 -2.765625 C 29.742188 -4.734375 29.613281 -7.125 30.34375 -9.9375 C 33.445312 -20.507812 36.515625 -31.0625 39.546875 -41.59375 C 42.578125 -52.132812 45.640625 -62.691406 48.734375 -73.265625 C 44.296875 -74.046875 39.941406 -74.710938 35.671875 -75.265625 C 32.765625 -75.609375 30.609375 -76.628906 29.203125 -78.328125 C 27.796875 -80.035156 27.0625 -82.023438 27 -84.296875 C 26.945312 -86.566406 27.457031 -88.726562 28.53125 -90.78125 C 29.613281 -92.84375 31.171875 -94.515625 33.203125 -95.796875 C 35.234375 -97.085938 37.703125 -97.554688 40.609375 -97.203125 C 57.265625 -95.210938 73.488281 -91.316406 89.28125 -85.515625 Z M 89.28125 -85.515625 "/></g></g></g></g></g><g transform="matrix(1, 0, 0, 1, 200, 224)"><g clip-path="url(#0bb9f40a47)"><g fill="#ff9fb3" fill-opacity="1"><g transform="translate(0.898641, 22.101093)"><g><path d="M 4.71875 0 L 0.59375 0 L 6.859375 -18.171875 L 11.8125 -18.171875 L 18.078125 0 L 13.96875 0 L 12.609375 -4.140625 L 6.0625 -4.140625 Z M 7.03125 -7.140625 L 11.65625 -7.140625 L 9.40625 -14.015625 L 9.265625 -14.015625 Z M 7.03125 -7.140625 "/></g></g></g><g fill="#ff9fb3" fill-opacity="1"><g transform="translate(19.868939, 22.101093)"><g><path d="M 1.578125 0 L 1.578125 -18.171875 L 8.75 -18.171875 C 10.8125 -18.171875 12.410156 -17.628906 13.546875 -16.546875 C 14.691406 -15.472656 15.265625 -14.035156 15.265625 -12.234375 C 15.265625 -10.992188 14.984375 -9.929688 14.421875 -9.046875 C 13.867188 -8.171875 13.078125 -7.507812 12.046875 -7.0625 L 15.90625 0 L 11.671875 0 L 8.21875 -6.4375 L 5.421875 -6.4375 L 5.421875 0 Z M 5.421875 -9.53125 L 8.03125 -9.53125 C 10.207031 -9.53125 11.296875 -10.429688 11.296875 -12.234375 C 11.296875 -14.097656 10.203125 -15.03125 8.015625 -15.03125 L 5.421875 -15.03125 Z M 5.421875 -9.53125 "/></g></g></g><g fill="#ff9fb3" fill-opacity="1"><g transform="translate(36.551981, 22.101093)"><g><path d="M 0.890625 -15 L 0.890625 -18.171875 L 15.8125 -18.171875 L 15.8125 -15 L 10.25 -15 L 10.25 0 L 6.453125 0 L 6.453125 -15 Z M 0.890625 -15 "/></g></g></g><g fill="#ff9fb3" fill-opacity="1"><g transform="translate(53.536462, 22.101093)"><g/></g></g><g fill="#ff9fb3" fill-opacity="1"><g transform="translate(59.625459, 22.101093)"><g><path d="M 17.609375 -11.8125 L 13.71875 -11.8125 C 13.570312 -12.8125 13.144531 -13.59375 12.4375 -14.15625 C 11.738281 -14.726562 10.863281 -15.015625 9.8125 -15.015625 C 8.40625 -15.015625 7.273438 -14.5 6.421875 -13.46875 C 5.578125 -12.4375 5.15625 -10.972656 5.15625 -9.078125 C 5.15625 -7.140625 5.582031 -5.664062 6.4375 -4.65625 C 7.289062 -3.65625 8.40625 -3.15625 9.78125 -3.15625 C 10.8125 -3.15625 11.679688 -3.421875 12.390625 -3.953125 C 13.097656 -4.484375 13.539062 -5.234375 13.71875 -6.203125 L 17.609375 -6.1875 C 17.472656 -5.082031 17.078125 -4.035156 16.421875 -3.046875 C 15.765625 -2.066406 14.875 -1.269531 13.75 -0.65625 C 12.625 -0.0507812 11.28125 0.25 9.71875 0.25 C 8.101562 0.25 6.65625 -0.113281 5.375 -0.84375 C 4.101562 -1.582031 3.097656 -2.644531 2.359375 -4.03125 C 1.628906 -5.425781 1.265625 -7.109375 1.265625 -9.078125 C 1.265625 -11.066406 1.632812 -12.753906 2.375 -14.140625 C 3.125 -15.535156 4.132812 -16.597656 5.40625 -17.328125 C 6.6875 -18.054688 8.125 -18.421875 9.71875 -18.421875 C 11.125 -18.421875 12.390625 -18.160156 13.515625 -17.640625 C 14.640625 -17.117188 15.5625 -16.363281 16.28125 -15.375 C 17 -14.394531 17.441406 -13.207031 17.609375 -11.8125 Z M 17.609375 -11.8125 "/></g></g></g><g fill="#ff9fb3" fill-opacity="1"><g transform="translate(78.702157, 22.101093)"><g><path d="M 18.28125 -9.078125 C 18.28125 -7.097656 17.90625 -5.410156 17.15625 -4.015625 C 16.40625 -2.628906 15.390625 -1.570312 14.109375 -0.84375 C 12.828125 -0.113281 11.378906 0.25 9.765625 0.25 C 8.148438 0.25 6.703125 -0.113281 5.421875 -0.84375 C 4.140625 -1.582031 3.125 -2.644531 2.375 -4.03125 C 1.632812 -5.425781 1.265625 -7.109375 1.265625 -9.078125 C 1.265625 -11.066406 1.632812 -12.753906 2.375 -14.140625 C 3.125 -15.535156 4.140625 -16.597656 5.421875 -17.328125 C 6.703125 -18.054688 8.148438 -18.421875 9.765625 -18.421875 C 11.378906 -18.421875 12.828125 -18.054688 14.109375 -17.328125 C 15.390625 -16.597656 16.40625 -15.535156 17.15625 -14.140625 C 17.90625 -12.753906 18.28125 -11.066406 18.28125 -9.078125 Z M 14.375 -9.078125 C 14.375 -11.015625 13.953125 -12.488281 13.109375 -13.5 C 12.273438 -14.507812 11.160156 -15.015625 9.765625 -15.015625 C 8.367188 -15.015625 7.25 -14.507812 6.40625 -13.5 C 5.570312 -12.488281 5.15625 -11.015625 5.15625 -9.078125 C 5.15625 -7.160156 5.570312 -5.691406 6.40625 -4.671875 C 7.25 -3.660156 8.367188 -3.15625 9.765625 -3.15625 C 11.160156 -3.15625 12.273438 -3.660156 13.109375 -4.671875 C 13.953125 -5.691406 14.375 -7.160156 14.375 -9.078125 Z M 14.375 -9.078125 "/></g></g></g><g fill="#ff9fb3" fill-opacity="1"><g transform="translate(98.523541, 22.101093)"><g><path d="M 1.578125 -18.171875 L 6.3125 -18.171875 L 11.328125 -5.96875 L 11.53125 -5.96875 L 16.53125 -18.171875 L 21.28125 -18.171875 L 21.28125 0 L 17.546875 0 L 17.546875 -11.828125 L 17.40625 -11.828125 L 12.703125 -0.09375 L 10.15625 -0.09375 L 5.453125 -11.875 L 5.3125 -11.875 L 5.3125 0 L 1.578125 0 Z M 1.578125 -18.171875 "/></g></g></g><g fill="#ff9fb3" fill-opacity="1"><g transform="translate(121.891046, 22.101093)"><g><path d="M 1.578125 -18.171875 L 6.3125 -18.171875 L 11.328125 -5.96875 L 11.53125 -5.96875 L 16.53125 -18.171875 L 21.28125 -18.171875 L 21.28125 0 L 17.546875 0 L 17.546875 -11.828125 L 17.40625 -11.828125 L 12.703125 -0.09375 L 10.15625 -0.09375 L 5.453125 -11.875 L 5.3125 -11.875 L 5.3125 0 L 1.578125 0 Z M 1.578125 -18.171875 "/></g></g></g><g fill="#ff9fb3" fill-opacity="1"><g transform="translate(145.258551, 22.101093)"><g><path d="M 12.828125 -18.171875 L 16.640625 -18.171875 L 16.640625 -6.15625 C 16.640625 -4.78125 16.316406 -3.613281 15.671875 -2.65625 C 15.023438 -1.707031 14.132812 -0.984375 13 -0.484375 C 11.875 0.00390625 10.578125 0.25 9.109375 0.25 C 7.640625 0.25 6.335938 0.00390625 5.203125 -0.484375 C 4.066406 -0.984375 3.175781 -1.707031 2.53125 -2.65625 C 1.894531 -3.613281 1.578125 -4.78125 1.578125 -6.15625 L 1.578125 -18.171875 L 5.421875 -18.171875 L 5.421875 -6.296875 C 5.421875 -5.316406 5.769531 -4.550781 6.46875 -4 C 7.175781 -3.445312 8.054688 -3.171875 9.109375 -3.171875 C 10.191406 -3.171875 11.082031 -3.445312 11.78125 -4 C 12.476562 -4.550781 12.828125 -5.316406 12.828125 -6.296875 Z M 12.828125 -18.171875 "/></g></g></g><g fill="#ff9fb3" fill-opacity="1"><g transform="translate(163.767868, 22.101093)"><g><path d="M 16.78125 -18.171875 L 16.78125 0 L 13.453125 0 L 5.546875 -11.4375 L 5.421875 -11.4375 L 5.421875 0 L 1.578125 0 L 1.578125 -18.171875 L 4.953125 -18.171875 L 12.796875 -6.75 L 12.953125 -6.75 L 12.953125 -18.171875 Z M 16.78125 -18.171875 "/></g></g></g><g fill="#ff9fb3" fill-opacity="1"><g transform="translate(182.419024, 22.101093)"><g><path d="M 5.421875 -18.171875 L 5.421875 0 L 1.578125 0 L 1.578125 -18.171875 Z M 5.421875 -18.171875 "/></g></g></g><g fill="#ff9fb3" fill-opacity="1"><g transform="translate(189.722567, 22.101093)"><g><path d="M 0.890625 -15 L 0.890625 -18.171875 L 15.8125 -18.171875 L 15.8125 -15 L 10.25 -15 L 10.25 0 L 6.453125 0 L 6.453125 -15 Z M 0.890625 -15 "/></g></g></g><g fill="#ff9fb3" fill-opacity="1"><g transform="translate(206.707048, 22.101093)"><g><path d="M 0.515625 -18.171875 L 4.8125 -18.171875 L 8.96875 -10.34375 L 9.140625 -10.34375 L 13.28125 -18.171875 L 17.578125 -18.171875 L 10.953125 -6.421875 L 10.953125 0 L 7.140625 0 L 7.140625 -6.421875 Z M 0.515625 -18.171875 "/></g></g></g></g></g></svg>